# xmcd CD database file
#
# Track frame offsets:
#	150
#	28341
#	47546
#	69740
#	98280
#	127819
#	143446
#	176469
#	203751
#	228929
#	253563
#	267182
#	290581
#	308657
#
# Disc length: 4474 seconds
#
# Revision: 1
# Processed by: cddbd v1.5.2PL0 Copyright (c) Steve Scherf et al.
# Submitted via: CDex 1.70beta2
#
DISCID=b611780e
DTITLE=Masina - Masina and the Kim Anning Quartet Live+
DYEAR=2007
DGENRE=Jazz
TTITLE0=Is You Is
TTITLE1=The Wee Small
TTITLE2=Fire and Rain
TTITLE3=Get Out of Town
TTITLE4=Aranjuez
TTITLE5=My Love Is
TTITLE6=Bye Bye Blackbird
TTITLE7=Que Sera
TTITLE8=Fly Too High
TTITLE9=You Don't Know Me
TTITLE10=Nature Boy
TTITLE11=Sweet Georgia Brown
TTITLE12=Yeah Yeah
TTITLE13=You Don't Know What Love Is
EXTD=YEAR: 2007
EXTT0=
EXTT1=
EXTT2=
EXTT3=
EXTT4=
EXTT5=
EXTT6=
EXTT7=
EXTT8=
EXTT9=
EXTT10=
EXTT11=
EXTT12=
EXTT13=
PLAYORDER=
